<svg width="1440" height="320" xmlns="http://www.w3.org/2000/svg">

 <g>
  <title>background</title>
  <rect fill="none" id="canvas_background" height="402" width="582" y="-1" x="-1"/>
 </g>
 <g>
  <title>Layer 1</title>
  <path stroke="null" id="svg_1" d="m-93.33334,245.316693l52.16667,16.796327c7.16667,-62.919544 186.50001,46.913593 290.83334,54.727033c104.33334,7.81344 208.66667,-6.14678 313.00001,-24.828c104.33334,-18.96535 180.333337,-43.362027 284.666677,-35.761677c104.33333,7.31622 192.000003,54.771747 296.333333,54.558647c104.33334,0.2131 378.66668,-83.2097 430.83334,-101.89092l-102.83333,13.66859l0,-90.92003l-52.16667,0c-52.16666,0 -156.5,0 -260.83334,0c-104.33333,0 -208.66667,0 -313,0c-104.33334,0 -208.66667,0 -313.00001,0c-104.33334,0 -208.66667,0 -313.00001,0c-104.33333,0 -208.66667,0 -260.83334,0l-52.16667,0l0,113.65003z" fill="#009688"/>
  <rect id="svg_2" height="156.666667" width="1535" y="-14.817708" x="-20.833333" stroke-opacity="null" stroke-width="null" stroke="null" fill="#009688"/>
 </g>
</svg>