<svg width="1440" height="320" xmlns="http://www.w3.org/2000/svg">

 <g>
  <title>Layer 1</title>
  <path stroke="null" id="svg_1" d="m1440.99994,232.04402l-48.06666,17.84461c-48.06666,18.17972 -144.19999,53.36628 -240.33332,62.5818c-96.13333,9.21553 -192.26666,-9.21553 -288.39999,-31.24901c-96.13333,-22.3686 -192.26666,-49.1774 -288.39999,-40.21321c-96.13333,8.62908 -192.26666,53.86894 -288.39999,53.61761c-96.13333,0.25133 -192.26666,-44.98853 -240.33332,-67.02201l-48.06666,-22.3686l0,-107.23522l48.06666,0c48.06666,0 144.19999,0 240.33332,0c96.13333,0 192.26666,0 288.39999,0c96.13333,0 192.26666,0 288.39999,0c96.13333,0 192.26666,0 288.39999,0c96.13333,0 192.26666,0 240.33332,0l48.06666,0l0,134.04403z" fill="#009688"/>
  <rect id="svg_3" height="176" width="1496" y="-37" x="-24" stroke="null" fill="#009688"/>
 </g>
</svg>